# xmcd CD database file
#
# Track frame offsets:
#	200
#	22030
#	40240
#	57937
#	78222
#	98297
#	115835
#	138225
#	157647
#	180360
#
# Disc length: 2580 seconds
#
# Revision: 1
# Processed by: cddbd v1.4PL0 Copyright (c) Steve Scherf et al.
# Submitted via: CDex 1.50beta10
#
DISCID=660a120a
DTITLE=Koinonia - Koinonia
DYEAR=1992
DGENRE=Jazz
TTITLE0=Talk About It
TTITLE1=Alegría
TTITLE2=We Know the Way By Heart
TTITLE3=Come Share My World
TTITLE4=You Are My Love
TTITLE5=Straight To Paradise
TTITLE6=Mistral
TTITLE7=We're All In This Together
TTITLE8=Is It Too Late
TTITLE9=Lyn
EXTD=YEAR: 1992
EXTT0=
EXTT1=
EXTT2=
EXTT3=
EXTT4=
EXTT5=
EXTT6=
EXTT7=
EXTT8=
EXTT9=
PLAYORDER=
